<svg width="33" height="33" viewBox="0 0 33 33" fill="none" xmlns="http://www.w3.org/2000/svg">
<path d="M24.5217 16.7357C27.603 12.4094 29.1742 7.93815 26.9892 5.75315C24.8042 3.56815 20.333 5.13941 16.0067 8.22065C11.6805 5.13941 7.20921 3.56815 5.02421 5.75315C2.83921 7.93815 4.41046 12.4094 7.49171 16.7357C4.41046 21.0619 2.83921 25.5332 5.02421 27.7182C5.72796 28.4219 6.66796 28.7357 7.76296 28.7357C10.073 28.7357 13.073 27.3394 16.013 25.2507C18.9405 27.3394 21.9405 28.7357 24.2567 28.7357C25.3517 28.7357 26.293 28.4207 26.9955 27.7182C29.1742 25.5332 27.603 21.0619 24.5217 16.7357ZM25.5755 7.1669C26.5305 8.1219 25.8855 11.2169 23.2605 15.0769C22.43 14.0489 21.5459 13.0654 20.6117 12.1307C19.6768 11.1978 18.6934 10.3149 17.6655 9.48565C21.5255 6.86065 24.6205 6.21065 25.5755 7.1669ZM22.043 16.7357C21.1584 17.8546 20.2084 18.9202 19.198 19.9269C18.1913 20.9374 17.1257 21.8874 16.0067 22.7719C14.8878 21.8874 13.8221 20.9374 12.8155 19.9269C11.805 18.9202 10.855 17.8546 9.97046 16.7357C11.7451 14.4994 13.7704 12.474 16.0067 10.6994C17.1257 11.5839 18.1913 12.5339 19.198 13.5444C20.2084 14.5511 21.1584 15.6167 22.043 16.7357ZM6.43796 7.1669C6.71296 6.89065 7.16671 6.74815 7.76546 6.74815C9.24296 6.74815 11.6017 7.61065 14.3467 9.48565C13.3198 10.3156 12.3368 11.1984 11.4017 12.1307C10.4688 13.0655 9.58594 14.049 8.75671 15.0769C6.13171 11.2169 5.48296 8.1219 6.43796 7.1669ZM6.43796 26.3044C5.48296 25.3494 6.13171 22.2544 8.75671 18.3944C9.58716 19.4224 10.4713 20.4059 11.4055 21.3407C12.3397 22.2728 13.3219 23.1557 14.348 23.9857C10.488 26.6107 7.39296 27.2607 6.43796 26.3044ZM25.5755 26.3044C24.6205 27.2607 21.5255 26.6144 17.6655 23.9894C18.6929 23.1583 19.6763 22.2742 20.6117 21.3407C21.5446 20.4058 22.4275 19.4223 23.2567 18.3944C25.8817 22.2544 26.5305 25.3494 25.5755 26.3044ZM17.5067 16.7357C17.5067 17.0323 17.4187 17.3223 17.2539 17.569C17.0891 17.8157 16.8548 18.0079 16.5807 18.1215C16.3066 18.235 16.005 18.2647 15.7141 18.2068C15.4231 18.149 15.1558 18.0061 14.9461 17.7963C14.7363 17.5865 14.5934 17.3193 14.5355 17.0283C14.4777 16.7373 14.5074 16.4357 14.6209 16.1616C14.7344 15.8875 14.9267 15.6533 15.1734 15.4885C15.42 15.3236 15.71 15.2357 16.0067 15.2357C16.4045 15.2357 16.7861 15.3937 17.0674 15.675C17.3487 15.9563 17.5067 16.3378 17.5067 16.7357Z" fill="white"/>
</svg>
