<svg width="11" height="11" viewBox="0 0 11 11" fill="none" xmlns="http://www.w3.org/2000/svg">
<path d="M6.72758 2.32761C6.98547 2.06971 7.33526 1.92483 7.69998 1.92483C8.0647 1.92483 8.41448 2.06971 8.67238 2.32761C8.93027 2.58551 9.07516 2.93529 9.07516 3.30001C9.07516 3.66473 8.93027 4.01451 8.67238 4.27241L7.99863 4.94561C7.92352 5.02344 7.88199 5.12766 7.88298 5.23582C7.88398 5.34397 7.92741 5.44741 8.00392 5.52386C8.08044 5.60031 8.18392 5.64364 8.29208 5.64453C8.40024 5.64542 8.50442 5.60379 8.58218 5.52861L9.25538 4.85541C9.65613 4.44049 9.87787 3.88476 9.87286 3.30793C9.86785 2.7311 9.63648 2.17931 9.22858 1.77141C8.82068 1.36351 8.26889 1.13214 7.69206 1.12713C7.11523 1.12212 6.5595 1.34386 6.14458 1.74461L4.49458 3.39461C4.28027 3.60894 4.11256 3.86524 4.00196 4.14744C3.89137 4.42964 3.84028 4.73164 3.8519 5.03451C3.86352 5.33739 3.93759 5.63459 4.06948 5.90749C4.20137 6.18038 4.38823 6.42308 4.61833 6.62036C4.70155 6.68984 4.80879 6.72377 4.91683 6.71479C5.02488 6.70582 5.12505 6.65467 5.19567 6.57241C5.26629 6.49015 5.30169 6.38339 5.29421 6.27523C5.28672 6.16707 5.23696 6.06621 5.15568 5.99446C5.01169 5.87121 4.89475 5.71952 4.81218 5.54892C4.72961 5.37832 4.6832 5.19249 4.67586 5.0031C4.66853 4.81371 4.70043 4.62485 4.76956 4.44838C4.83869 4.2719 4.94356 4.11163 5.07758 3.97761L6.72758 2.32761Z" fill="white"/>
<path d="M6.38162 4.37966C6.2984 4.31018 6.19116 4.27626 6.08311 4.28523C5.97507 4.2942 5.8749 4.34535 5.80428 4.42761C5.73366 4.50987 5.69826 4.61663 5.70574 4.72479C5.71323 4.83295 5.76299 4.93381 5.84427 5.00556C5.98825 5.12881 6.1052 5.2805 6.18777 5.4511C6.27034 5.6217 6.31675 5.80753 6.32409 5.99692C6.33142 6.18631 6.29952 6.37517 6.23039 6.55164C6.16126 6.72812 6.05639 6.8884 5.92237 7.02241L4.27237 8.67241C4.01447 8.93031 3.66469 9.07519 3.29997 9.07519C2.93525 9.07519 2.58547 8.93031 2.32757 8.67241C2.06967 8.41452 1.92479 8.06473 1.92479 7.70001C1.92479 7.33529 2.06967 6.98551 2.32757 6.72761L3.00132 6.05441C3.07643 5.97658 3.11795 5.87236 3.11696 5.7642C3.11597 5.65605 3.07254 5.55261 2.99603 5.47616C2.91951 5.39972 2.81603 5.35638 2.70787 5.3555C2.59971 5.35461 2.49553 5.39624 2.41777 5.47141L1.74457 6.14461C1.53445 6.34756 1.36685 6.59031 1.25155 6.85872C1.13625 7.12713 1.07556 7.41582 1.07302 7.70793C1.07048 8.00004 1.12615 8.28974 1.23676 8.56011C1.34738 8.83048 1.51074 9.07612 1.7173 9.28268C1.92387 9.48925 2.1695 9.6526 2.43987 9.76322C2.71024 9.87384 2.99994 9.9295 3.29205 9.92696C3.58417 9.92443 3.87285 9.86374 4.14126 9.74844C4.40967 9.63314 4.65243 9.46553 4.85537 9.25541L6.50537 7.60541C6.71968 7.39108 6.88739 7.13478 6.99799 6.85258C7.10858 6.57039 7.15967 6.26838 7.14805 5.96551C7.13643 5.66264 7.06235 5.36543 6.93047 5.09254C6.79858 4.81964 6.61172 4.57694 6.38162 4.37966Z" fill="white"/>
</svg>
