<svg width="32" height="32" viewBox="0 0 32 32" fill="none" xmlns="http://www.w3.org/2000/svg">
<path d="M23 12C23.8395 11.3704 24.4597 10.4925 24.7726 9.49084C25.0855 8.48916 25.0753 7.41442 24.7434 6.41886C24.4116 5.4233 23.7749 4.55739 22.9236 3.94379C22.0722 3.33019 21.0494 3 20 3H11C9.95059 3 8.92778 3.33019 8.07645 3.94379C7.22512 4.55739 6.58844 5.4233 6.25658 6.41886C5.92473 7.41442 5.91453 8.48916 6.22743 9.49084C6.54033 10.4925 7.16047 11.3704 8 12C7.36435 12.4764 6.85135 13.0973 6.50348 13.8115C6.15561 14.5256 5.9829 15.3123 5.99964 16.1065C6.01637 16.9006 6.22209 17.6794 6.59973 18.3782C6.97738 19.077 7.51609 19.6758 8.17125 20.125C7.42605 20.6916 6.83778 21.439 6.46217 22.2964C6.08655 23.1539 5.93601 24.093 6.0248 25.0249C6.11358 25.9568 6.43876 26.8507 6.96954 27.6218C7.50032 28.3929 8.21914 29.0157 9.05792 29.4314C9.89671 29.8471 10.8277 30.0417 11.7628 29.997C12.6978 29.9523 13.606 29.6696 14.4013 29.1758C15.1966 28.682 15.8526 27.9934 16.3074 27.1751C16.7622 26.3569 17.0006 25.4361 17 24.5V20C17.5253 20.394 18.123 20.6806 18.7591 20.8436C19.3952 21.0065 20.0571 21.0426 20.7071 20.9497C21.3571 20.8569 21.9825 20.6369 22.5475 20.3024C23.1125 19.9678 23.606 19.5253 24 19C24.394 18.4747 24.6806 17.877 24.8436 17.2409C25.0065 16.6048 25.0426 15.9429 24.9497 15.2929C24.8569 14.6429 24.6369 14.0175 24.3024 13.4525C23.9678 12.8875 23.5253 12.394 23 12ZM23 8C23 8.79565 22.6839 9.55871 22.1213 10.1213C21.5587 10.6839 20.7956 11 20 11H17V5H20C20.7956 5 21.5587 5.31607 22.1213 5.87868C22.6839 6.44129 23 7.20435 23 8ZM8 8C8 7.20435 8.31607 6.44129 8.87868 5.87868C9.44129 5.31607 10.2044 5 11 5H15V11H11C10.2044 11 9.44129 10.6839 8.87868 10.1213C8.31607 9.55871 8 8.79565 8 8ZM11 19C10.2044 19 9.44129 18.6839 8.87868 18.1213C8.31607 17.5587 8 16.7956 8 16C8 15.2044 8.31607 14.4413 8.87868 13.8787C9.44129 13.3161 10.2044 13 11 13H15V19H11ZM15 24.5C15 25.1922 14.7947 25.8689 14.4101 26.4445C14.0256 27.0201 13.4789 27.4687 12.8394 27.7336C12.1999 27.9985 11.4961 28.0678 10.8172 27.9327C10.1382 27.7977 9.51461 27.4644 9.02513 26.9749C8.53564 26.4854 8.2023 25.8617 8.06725 25.1828C7.9322 24.5039 8.00151 23.8001 8.26642 23.1606C8.53133 22.5211 8.97993 21.9744 9.5555 21.5899C10.1311 21.2053 10.8078 21 11.5 21H15V24.5ZM20 19C19.4067 19 18.8266 18.8241 18.3333 18.4944C17.8399 18.1648 17.4554 17.6962 17.2284 17.1481C17.0013 16.5999 16.9419 15.9967 17.0576 15.4147C17.1734 14.8328 17.4591 14.2982 17.8787 13.8787C18.2982 13.4591 18.8328 13.1734 19.4147 13.0576C19.9967 12.9419 20.5999 13.0013 21.1481 13.2284C21.6962 13.4554 22.1648 13.8399 22.4944 14.3333C22.8241 14.8266 23 15.4067 23 16C23 16.7956 22.6839 17.5587 22.1213 18.1213C21.5587 18.6839 20.7956 19 20 19Z" fill="white"/>
</svg>
