<svg width="33" height="32" viewBox="0 0 33 32" fill="none" xmlns="http://www.w3.org/2000/svg">
<path d="M16.5 19C16.5 19.2652 16.3946 19.5196 16.2071 19.7071C16.0196 19.8946 15.7652 20 15.5 20H14.5V26C14.5 26.2652 14.3946 26.5196 14.2071 26.7071C14.0196 26.8946 13.7652 27 13.5 27C13.2348 27 12.9804 26.8946 12.7929 26.7071C12.6054 26.5196 12.5 26.2652 12.5 26V20H11.5C11.2348 20 10.9804 19.8946 10.7929 19.7071C10.6054 19.5196 10.5 19.2652 10.5 19C10.5 18.7348 10.6054 18.4804 10.7929 18.2929C10.9804 18.1054 11.2348 18 11.5 18H15.5C15.7652 18 16.0196 18.1054 16.2071 18.2929C16.3946 18.4804 16.5 18.7348 16.5 19ZM8.5 18C8.23478 18 7.98043 18.1054 7.79289 18.2929C7.60536 18.4804 7.5 18.7348 7.5 19V21.5H5.5V19C5.5 18.7348 5.39464 18.4804 5.20711 18.2929C5.01957 18.1054 4.76522 18 4.5 18C4.23478 18 3.98043 18.1054 3.79289 18.2929C3.60536 18.4804 3.5 18.7348 3.5 19V26C3.5 26.2652 3.60536 26.5196 3.79289 26.7071C3.98043 26.8946 4.23478 27 4.5 27C4.76522 27 5.01957 26.8946 5.20711 26.7071C5.39464 26.5196 5.5 26.2652 5.5 26V23.5H7.5V26C7.5 26.2652 7.60536 26.5196 7.79289 26.7071C7.98043 26.8946 8.23478 27 8.5 27C8.76522 27 9.01957 26.8946 9.20711 26.7071C9.39464 26.5196 9.5 26.2652 9.5 26V19C9.5 18.7348 9.39464 18.4804 9.20711 18.2929C9.01957 18.1054 8.76522 18 8.5 18ZM30.5 25H29V19C29 18.7348 28.8946 18.4804 28.7071 18.2929C28.5196 18.1054 28.2652 18 28 18C27.7348 18 27.4804 18.1054 27.2929 18.2929C27.1054 18.4804 27 18.7348 27 19V26C27 26.2652 27.1054 26.5196 27.2929 26.7071C27.4804 26.8946 27.7348 27 28 27H30.5C30.7652 27 31.0196 26.8946 31.2071 26.7071C31.3946 26.5196 31.5 26.2652 31.5 26C31.5 25.7348 31.3946 25.4804 31.2071 25.2929C31.0196 25.1054 30.7652 25 30.5 25ZM24.7675 18.0362C24.5567 17.9777 24.3325 17.9899 24.1293 18.0709C23.9261 18.152 23.7551 18.2974 23.6425 18.485L21.5 22.0562L19.3575 18.485C19.245 18.2974 19.074 18.1519 18.8709 18.0708C18.6677 17.9897 18.4436 17.9774 18.2328 18.0358C18.022 18.0943 17.8362 18.2202 17.7039 18.3944C17.5715 18.5685 17.4999 18.7813 17.5 19V26C17.5 26.2652 17.6054 26.5196 17.7929 26.7071C17.9804 26.8946 18.2348 27 18.5 27C18.7652 27 19.0196 26.8946 19.2071 26.7071C19.3946 26.5196 19.5 26.2652 19.5 26V22.61L20.6425 24.515C20.7313 24.6631 20.857 24.7856 21.0073 24.8707C21.1576 24.9558 21.3273 25.0005 21.5 25.0005C21.6727 25.0005 21.8424 24.9558 21.9927 24.8707C22.143 24.7856 22.2687 24.6631 22.3575 24.515L23.5 22.61V26C23.5 26.2652 23.6054 26.5196 23.7929 26.7071C23.9804 26.8946 24.2348 27 24.5 27C24.7652 27 25.0196 26.8946 25.2071 26.7071C25.3946 26.5196 25.5 26.2652 25.5 26V19C25.5 18.7814 25.4284 18.5688 25.2961 18.3947C25.1638 18.2206 24.9782 18.0947 24.7675 18.0362ZM26.5 15C26.2348 15 25.9804 14.8946 25.7929 14.7071C25.6054 14.5196 25.5 14.2652 25.5 14V12H19.5C19.2348 12 18.9804 11.8946 18.7929 11.7071C18.6054 11.5196 18.5 11.2652 18.5 11V5H7.5V14C7.5 14.2652 7.39464 14.5196 7.20711 14.7071C7.01957 14.8946 6.76522 15 6.5 15C6.23478 15 5.98043 14.8946 5.79289 14.7071C5.60536 14.5196 5.5 14.2652 5.5 14V5C5.5 4.46957 5.71071 3.96086 6.08579 3.58579C6.46086 3.21071 6.96957 3 7.5 3H19.5C19.6314 2.9999 19.7615 3.02568 19.8829 3.07586C20.0042 3.12605 20.1146 3.19967 20.2075 3.2925L27.2075 10.2925C27.3003 10.3854 27.3739 10.4958 27.4241 10.6172C27.4743 10.7385 27.5001 10.8686 27.5 11V14C27.5 14.2652 27.3946 14.5196 27.2071 14.7071C27.0196 14.8946 26.7652 15 26.5 15ZM24.0863 10L20.5 6.41375V10H24.0863Z" fill="white"/>
</svg>
