<svg width="29" height="29" viewBox="0 0 29 29" fill="none" xmlns="http://www.w3.org/2000/svg">
<path d="M5.4375 13.5938C5.67785 13.5938 5.90836 13.4983 6.07832 13.3283C6.24827 13.1584 6.34375 12.9279 6.34375 12.6875V4.53125H16.3125V9.96875C16.3125 10.2091 16.408 10.4396 16.5779 10.6096C16.7479 10.7795 16.9784 10.875 17.2188 10.875H22.6562V12.6875C22.6562 12.9279 22.7517 13.1584 22.9217 13.3283C23.0916 13.4983 23.3221 13.5938 23.5625 13.5938C23.8029 13.5938 24.0334 13.4983 24.2033 13.3283C24.3733 13.1584 24.4688 12.9279 24.4688 12.6875V9.96875C24.4688 9.8497 24.4455 9.73181 24.4 9.62179C24.3545 9.51178 24.2878 9.4118 24.2037 9.32758L17.8599 2.98383C17.7757 2.8997 17.6757 2.83298 17.5657 2.7875C17.4557 2.74202 17.3378 2.71866 17.2188 2.71875H6.34375C5.86305 2.71875 5.40203 2.90971 5.06212 3.24962C4.72221 3.58953 4.53125 4.05055 4.53125 4.53125V12.6875C4.53125 12.9279 4.62673 13.1584 4.79668 13.3283C4.96664 13.4983 5.19715 13.5938 5.4375 13.5938ZM18.125 5.81246L21.375 9.0625H18.125V5.81246ZM25.8281 23.5625C25.8281 23.8029 25.7326 24.0334 25.5627 24.2033C25.3927 24.3733 25.1622 24.4688 24.9219 24.4688H21.75C21.5096 24.4688 21.2791 24.3733 21.1092 24.2033C20.9392 24.0334 20.8438 23.8029 20.8438 23.5625V17.2188C20.8438 16.9784 20.9392 16.7479 21.1092 16.5779C21.2791 16.408 21.5096 16.3125 21.75 16.3125C21.9904 16.3125 22.2209 16.408 22.3908 16.5779C22.5608 16.7479 22.6562 16.9784 22.6562 17.2188V22.6562H24.9219C25.1622 22.6562 25.3927 22.7517 25.5627 22.9217C25.7326 23.0916 25.8281 23.3221 25.8281 23.5625ZM10.4015 22.2382C10.3662 22.5849 10.2545 22.9193 10.0745 23.2177C9.89448 23.516 9.65062 23.7707 9.36043 23.9635C8.7725 24.3555 8.04297 24.4688 7.37914 24.4688C6.80019 24.4657 6.22394 24.3896 5.66406 24.2422C5.43533 24.1752 5.24219 24.0208 5.12648 23.8124C5.01078 23.604 4.98182 23.3585 5.04588 23.1289C5.10994 22.8993 5.26186 22.7042 5.46874 22.5859C5.67562 22.4675 5.9208 22.4354 6.15117 22.4965C6.64734 22.6325 7.84473 22.8024 8.36582 22.4557C8.46664 22.3889 8.57312 22.2836 8.60824 22.0105C8.64789 21.7081 8.52781 21.5461 7.16051 21.1507C6.10133 20.8449 4.32848 20.3317 4.55504 18.5328C4.5903 18.193 4.69992 17.8651 4.87612 17.5724C5.05232 17.2798 5.29078 17.0294 5.57457 16.8393C6.91582 15.933 9.05457 16.4643 9.29359 16.5266C9.40874 16.5569 9.51677 16.6097 9.61154 16.6818C9.7063 16.7539 9.78594 16.8439 9.8459 16.9468C9.90586 17.0497 9.94497 17.1634 9.96099 17.2814C9.97702 17.3994 9.96964 17.5193 9.9393 17.6345C9.90895 17.7496 9.85622 17.8577 9.78412 17.9524C9.71202 18.0472 9.62196 18.1268 9.51908 18.1868C9.4162 18.2468 9.30252 18.2859 9.18453 18.3019C9.06654 18.3179 8.94655 18.3105 8.83141 18.2802C8.32277 18.1477 7.10727 17.9902 6.58617 18.3436C6.51787 18.3897 6.46163 18.4515 6.4222 18.5239C6.38278 18.5962 6.36131 18.677 6.35961 18.7594C6.34602 18.8613 6.34375 18.8817 6.48648 18.9746C6.74816 19.1434 7.21602 19.2782 7.67027 19.4096C8.7793 19.7302 10.6552 20.2773 10.4015 22.2382ZM18.4445 22.6041C18.831 21.9306 19.0333 21.1672 19.0312 20.3906C19.0312 18.142 17.4057 16.3125 15.4062 16.3125C13.4068 16.3125 11.7812 18.142 11.7812 20.3906C11.7812 22.6393 13.4068 24.4688 15.4062 24.4688C16.0464 24.4665 16.6721 24.2784 17.2074 23.9273L17.4838 24.2037C17.6539 24.3736 17.8845 24.469 18.1248 24.4689C18.3652 24.4687 18.5957 24.3732 18.7656 24.2031C18.9355 24.0331 19.0309 23.8025 19.0308 23.5621C19.0307 23.3217 18.9351 23.0912 18.765 22.9213L18.4445 22.6041ZM15.4062 22.6562C14.4071 22.6562 13.5938 21.6367 13.5938 20.3906C13.5938 19.1445 14.4071 18.125 15.4062 18.125C16.4054 18.125 17.2188 19.1445 17.2188 20.3906C17.2189 20.6794 17.1738 20.9665 17.0851 21.2414L16.9525 21.1088C16.8683 21.0247 16.7684 20.958 16.6584 20.9125C16.5484 20.867 16.4306 20.8436 16.3115 20.8436C16.0712 20.8438 15.8407 20.9393 15.6708 21.1094C15.5009 21.2794 15.4055 21.51 15.4056 21.7504C15.4057 21.9908 15.5013 22.2213 15.6713 22.3912L15.8616 22.5804C15.7148 22.6296 15.5611 22.6552 15.4062 22.6562Z" fill="white"/>
</svg>
