<svg width="33" height="33" viewBox="0 0 33 33" fill="none" xmlns="http://www.w3.org/2000/svg">
<path d="M27.1096 10.7896L20.1096 3.78957C20.0167 3.69674 19.9063 3.62312 19.785 3.57293C19.6636 3.52275 19.5335 3.49697 19.4021 3.49707H7.4021C6.87167 3.49707 6.36296 3.70778 5.98789 4.08286C5.61281 4.45793 5.4021 4.96664 5.4021 5.49707V14.4971C5.4021 14.7623 5.50746 15.0166 5.69499 15.2042C5.88253 15.3917 6.13688 15.4971 6.4021 15.4971C6.66732 15.4971 6.92167 15.3917 7.10921 15.2042C7.29674 15.0166 7.4021 14.7623 7.4021 14.4971V5.49707H18.4021V11.4971C18.4021 11.7623 18.5075 12.0166 18.695 12.2042C18.8825 12.3917 19.1369 12.4971 19.4021 12.4971H25.4021V27.4971H22.4021C22.1369 27.4971 21.8825 27.6024 21.695 27.79C21.5075 27.9775 21.4021 28.2319 21.4021 28.4971C21.4021 28.7623 21.5075 29.0166 21.695 29.2042C21.8825 29.3917 22.1369 29.4971 22.4021 29.4971H25.4021C25.9325 29.4971 26.4412 29.2864 26.8163 28.9113C27.1914 28.5362 27.4021 28.0275 27.4021 27.4971V11.4971C27.4022 11.3657 27.3764 11.2356 27.3262 11.1142C27.276 10.9928 27.2024 10.8825 27.1096 10.7896ZM20.4021 6.91082L23.9883 10.4971H20.4021V6.91082ZM18.8783 25.0358C18.8394 25.4183 18.7161 25.7874 18.5175 26.1166C18.3189 26.4457 18.0498 26.7268 17.7296 26.9396C17.0808 27.3721 16.2771 27.4971 15.5433 27.4971C14.9025 27.4934 14.2646 27.4094 13.6446 27.2471C13.3892 27.1756 13.1726 27.0056 13.0425 26.7745C12.9124 26.5434 12.8794 26.27 12.9508 26.0146C13.0223 25.7591 13.1923 25.5425 13.4234 25.4124C13.6546 25.2823 13.9279 25.2494 14.1833 25.3208C14.7308 25.4708 16.0583 25.6583 16.6271 25.2758C16.7371 25.2021 16.8558 25.0858 16.8946 24.7846C16.9371 24.4508 16.8059 24.2721 15.2971 23.8358C14.1284 23.4983 12.1721 22.9321 12.4221 20.9471C12.4611 20.5721 12.5821 20.2104 12.7765 19.8874C12.9709 19.5645 13.234 19.2882 13.5471 19.0783C15.0271 18.0783 17.3859 18.6646 17.6509 18.7333C17.9074 18.8008 18.1267 18.9674 18.2605 19.1966C18.3942 19.4257 18.4314 19.6986 18.364 19.9552C18.2965 20.2118 18.1299 20.4311 17.9007 20.5648C17.6716 20.6986 17.3987 20.7358 17.1421 20.6683C16.5808 20.5221 15.2383 20.3483 14.6633 20.7383C14.588 20.7892 14.5259 20.8574 14.4824 20.9372C14.4389 21.0171 14.4152 21.1062 14.4133 21.1971C14.3983 21.3096 14.3958 21.3333 14.5521 21.4346C14.8408 21.6208 15.3583 21.7696 15.8583 21.9146C17.0883 22.2683 19.1583 22.8721 18.8783 25.0358ZM10.4021 19.4971V24.2471C10.4021 25.109 10.0597 25.9357 9.4502 26.5452C8.8407 27.1547 8.01405 27.4971 7.1521 27.4971C6.29015 27.4971 5.4635 27.1547 4.854 26.5452C4.24451 25.9357 3.9021 25.109 3.9021 24.2471C3.9021 23.9819 4.00746 23.7275 4.19499 23.54C4.38253 23.3524 4.63688 23.2471 4.9021 23.2471C5.16732 23.2471 5.42167 23.3524 5.60921 23.54C5.79674 23.7275 5.9021 23.9819 5.9021 24.2471C5.9021 24.5786 6.0338 24.8965 6.26822 25.131C6.50264 25.3654 6.82058 25.4971 7.1521 25.4971C7.48362 25.4971 7.80156 25.3654 8.03598 25.131C8.2704 24.8965 8.4021 24.5786 8.4021 24.2471V19.4971C8.4021 19.2319 8.50746 18.9775 8.69499 18.79C8.88253 18.6024 9.13688 18.4971 9.4021 18.4971C9.66732 18.4971 9.92167 18.6024 10.1092 18.79C10.2967 18.9775 10.4021 19.2319 10.4021 19.4971Z" fill="white"/>
</svg>
