<svg width="33" height="33" viewBox="0 0 33 33" fill="none" xmlns="http://www.w3.org/2000/svg">
<path d="M6.646 22.6191C6.646 23.9941 7.5435 25.1191 8.646 25.1191C8.8873 25.1137 9.12499 25.0593 9.34461 24.9592C9.56422 24.859 9.76118 24.7153 9.9235 24.5366C10.013 24.4368 10.1217 24.356 10.243 24.299C10.3644 24.2421 10.496 24.2101 10.63 24.205C10.764 24.1999 10.8976 24.2218 11.0229 24.2694C11.1483 24.317 11.2628 24.3893 11.3596 24.482C11.4565 24.5747 11.5337 24.686 11.5866 24.8092C11.6396 24.9323 11.6673 25.0649 11.668 25.199C11.6687 25.333 11.6424 25.4659 11.5908 25.5896C11.5391 25.7133 11.4631 25.8254 11.3672 25.9191C11.0195 26.2942 10.5986 26.5941 10.1307 26.8004C9.66269 27.0068 9.15744 27.1153 8.646 27.1191C6.43975 27.1191 4.646 25.1004 4.646 22.6191C4.646 20.1379 6.43975 18.1191 8.646 18.1191C9.15744 18.123 9.66269 18.2315 10.1307 18.4378C10.5986 18.6442 11.0195 18.9441 11.3672 19.3191C11.4631 19.4129 11.5391 19.525 11.5908 19.6487C11.6424 19.7724 11.6687 19.9053 11.668 20.0393C11.6673 20.1734 11.6396 20.306 11.5866 20.4291C11.5337 20.5523 11.4565 20.6635 11.3596 20.7563C11.2628 20.849 11.1483 20.9213 11.0229 20.9689C10.8976 21.0165 10.764 21.0384 10.63 21.0333C10.496 21.0282 10.3644 20.9962 10.243 20.9392C10.1217 20.8823 10.013 20.8015 9.9235 20.7016C9.76118 20.523 9.56422 20.3792 9.34461 20.2791C9.12499 20.179 8.8873 20.1245 8.646 20.1191C7.5435 20.1191 6.646 21.2441 6.646 22.6191ZM16.596 21.5329C16.096 21.3879 15.5785 21.2391 15.2897 21.0529C15.1322 20.9516 15.136 20.9279 15.1497 20.8154C15.1516 20.7245 15.1753 20.6354 15.2188 20.5555C15.2623 20.4757 15.3244 20.4075 15.3997 20.3566C15.9747 19.9666 17.3172 20.1404 17.8785 20.2866C18.1351 20.3541 18.408 20.3169 18.6371 20.1831C18.8663 20.0494 19.0329 19.8301 19.1004 19.5735C19.1678 19.3169 19.1306 19.044 18.9969 18.8149C18.8631 18.5857 18.6438 18.4191 18.3872 18.3516C18.1222 18.2829 15.7622 17.6991 14.2835 18.6966C13.9703 18.9065 13.7072 19.1827 13.5128 19.5057C13.3184 19.8286 13.1974 20.1904 13.1585 20.5654C12.9085 22.5504 14.8635 23.1166 16.0335 23.4541C17.5422 23.8904 17.6747 24.0691 17.631 24.4029C17.5922 24.7041 17.4735 24.8204 17.3635 24.8941C16.7885 25.2766 15.4672 25.0891 14.9197 24.9391C14.6655 24.8717 14.395 24.9071 14.1667 25.0377C13.9384 25.1683 13.7708 25.3836 13.7001 25.6369C13.6294 25.8903 13.6614 26.1612 13.7891 26.3912C13.9167 26.6211 14.1298 26.7915 14.3822 26.8654C15.0018 27.0278 15.6393 27.1118 16.2797 27.1154C17.0085 27.1154 17.8172 26.9904 18.466 26.5579C18.7862 26.3451 19.0553 26.064 19.2539 25.7349C19.4525 25.4057 19.5758 25.0366 19.6147 24.6541C19.896 22.4941 17.831 21.8904 16.596 21.5329ZM24.596 21.5329C24.096 21.3879 23.5785 21.2391 23.2897 21.0529C23.1335 20.9516 23.136 20.9279 23.1497 20.8154C23.1516 20.7245 23.1753 20.6354 23.2188 20.5555C23.2623 20.4757 23.3244 20.4075 23.3997 20.3566C23.9747 19.9666 25.3172 20.1404 25.8772 20.2866C26.1338 20.3541 26.4067 20.3169 26.6359 20.1831C26.865 20.0494 27.0317 19.8301 27.0991 19.5735C27.1666 19.3169 27.1294 19.044 26.9956 18.8149C26.8619 18.5857 26.6426 18.4191 26.386 18.3516C26.1222 18.2829 23.761 17.6991 22.2822 18.6966C21.9704 18.9073 21.7086 19.1839 21.5153 19.5068C21.322 19.8297 21.2019 20.191 21.1635 20.5654C20.9135 22.5504 22.8697 23.1166 24.0385 23.4541C25.546 23.8904 25.6785 24.0691 25.636 24.4029C25.5972 24.7041 25.4785 24.8204 25.3672 24.8941C24.7922 25.2766 23.4722 25.0891 22.9247 24.9391C22.6688 24.8679 22.395 24.9012 22.1637 25.0317C21.9323 25.1623 21.7623 25.3795 21.691 25.6354C21.6197 25.8913 21.653 26.1651 21.7836 26.3965C21.9142 26.6278 22.1313 26.7979 22.3872 26.8691C23.0072 27.0315 23.6451 27.1155 24.286 27.1191C25.0135 27.1191 25.8235 26.9941 26.4722 26.5616C26.7923 26.3488 27.0612 26.0677 27.2596 25.7385C27.458 25.4093 27.581 25.0403 27.6197 24.6579C27.896 22.4941 25.831 21.8904 24.5947 21.5329H24.596ZM5.646 14.1191V5.11914C5.646 4.58871 5.85671 4.08 6.23178 3.70493C6.60686 3.32985 7.11556 3.11914 7.646 3.11914H19.646C19.7774 3.11904 19.9075 3.14482 20.0288 3.195C20.1502 3.24519 20.2606 3.31881 20.3535 3.41164L27.3535 10.4116C27.4463 10.5046 27.5199 10.6149 27.5701 10.7363C27.6203 10.8577 27.6461 10.9878 27.646 11.1191V14.1191C27.646 14.3844 27.5406 14.6387 27.3531 14.8262C27.1656 15.0138 26.9112 15.1191 26.646 15.1191C26.3808 15.1191 26.1264 15.0138 25.9389 14.8262C25.7514 14.6387 25.646 14.3844 25.646 14.1191V12.1191H19.646C19.3808 12.1191 19.1264 12.0138 18.9389 11.8262C18.7514 11.6387 18.646 11.3844 18.646 11.1191V5.11914H7.646V14.1191C7.646 14.3844 7.54064 14.6387 7.3531 14.8262C7.16557 15.0138 6.91121 15.1191 6.646 15.1191C6.38078 15.1191 6.12643 15.0138 5.93889 14.8262C5.75135 14.6387 5.646 14.3844 5.646 14.1191ZM20.646 10.1191H24.231L20.646 6.53289V10.1191Z" fill="white"/>
</svg>
