<svg width="18" height="18" viewBox="0 0 18 18" fill="none" xmlns="http://www.w3.org/2000/svg">
<path d="M0.610004 5.99461C0.509978 6.0698 0.430355 6.16883 0.378389 6.28266C0.326423 6.3965 0.303766 6.52153 0.312482 6.64636C0.321197 6.77119 0.361009 6.89186 0.428289 6.99737C0.49557 7.10288 0.588181 7.18987 0.697685 7.25043L5.18003 9.73309C5.46493 9.89087 5.79344 9.95164 6.11592 9.90623C6.43841 9.86081 6.73736 9.71168 6.9676 9.48136L11.2916 5.1574C11.4322 5.01675 11.623 4.93773 11.8219 4.93773C12.0208 4.93773 12.2116 5.01675 12.3522 5.1574C12.4929 5.29805 12.5719 5.48882 12.5719 5.68773C12.5719 5.88664 12.4929 6.07741 12.3522 6.21806L8.02826 10.542C7.79794 10.7723 7.6488 11.0712 7.60339 11.3937C7.55798 11.7162 7.61875 12.0447 7.77653 12.3296L10.2599 16.8126C10.3205 16.9221 10.4074 17.0148 10.513 17.082C10.6185 17.1493 10.7391 17.1891 10.864 17.1978C10.9888 17.2066 11.1138 17.1839 11.2277 17.1319C11.3415 17.08 11.4405 17.0003 11.5157 16.9003C14.9715 12.3004 16.9754 6.77366 17.2709 1.02789C17.2764 0.9229 17.2598 0.817916 17.2221 0.719754C17.1845 0.621593 17.1266 0.532447 17.0522 0.458102C16.9779 0.383757 16.8887 0.325874 16.7906 0.288209C16.6924 0.250544 16.5874 0.233938 16.4824 0.23947C10.7367 0.534987 5.20992 2.53892 0.610004 5.99461Z" fill="#80FF00"/>
</svg>
