<svg width="15" height="15" viewBox="0 0 15 15" fill="none" xmlns="http://www.w3.org/2000/svg">
<path fill-rule="evenodd" clip-rule="evenodd" d="M3.91499 11.085C4.02046 11.1903 4.16343 11.2495 4.31249 11.2495C4.46156 11.2495 4.60452 11.1903 4.70999 11.085L10.125 5.67V9.9375C10.125 10.0867 10.1843 10.2298 10.2897 10.3352C10.3952 10.4407 10.5383 10.5 10.6875 10.5C10.8367 10.5 10.9798 10.4407 11.0852 10.3352C11.1907 10.2298 11.25 10.0867 11.25 9.9375V4.3125C11.25 4.16332 11.1907 4.02024 11.0852 3.91475C10.9798 3.80926 10.8367 3.75 10.6875 3.75H5.06249C4.91331 3.75 4.77023 3.80926 4.66475 3.91475C4.55926 4.02024 4.49999 4.16332 4.49999 4.3125C4.49999 4.46168 4.55926 4.60476 4.66475 4.71025C4.77023 4.81574 4.91331 4.875 5.06249 4.875H9.32999L3.91499 10.29C3.80966 10.3955 3.75049 10.5384 3.75049 10.6875C3.75049 10.8366 3.80966 10.9795 3.91499 11.085Z" fill="white"/>
</svg>
