<svg width="112" height="38" viewBox="0 0 112 38" fill="none" xmlns="http://www.w3.org/2000/svg">
<path d="M49.3794 31.8171C48.216 31.8171 47.1413 31.5903 46.1554 31.1368C45.1892 30.6635 44.4202 29.9931 43.8484 29.1255L44.2329 28.3565V31.4621H40.5948V9.07189H44.4695V18.5663L43.8779 17.7677C44.4301 16.9001 45.1793 16.2297 46.1258 15.7564C47.0723 15.2635 48.1667 15.017 49.4089 15.017C50.9273 15.017 52.2977 15.3916 53.5202 16.1409C54.7428 16.8902 55.709 17.8959 56.4188 19.1578C57.1484 20.4198 57.5132 21.8396 57.5132 23.417C57.5132 24.9748 57.1583 26.3945 56.4484 27.6762C55.7386 28.9579 54.7723 29.9734 53.5498 30.7227C52.3273 31.4523 50.9371 31.8171 49.3794 31.8171ZM48.9357 28.2677C49.823 28.2677 50.6118 28.0607 51.3019 27.6466C51.9921 27.2325 52.5245 26.6607 52.8991 25.9311C53.2935 25.2015 53.4907 24.3635 53.4907 23.417C53.4907 22.4705 53.2935 21.6424 52.8991 20.9325C52.5245 20.2029 51.9921 19.6311 51.3019 19.217C50.6118 18.7832 49.823 18.5663 48.9357 18.5663C48.0878 18.5663 47.3188 18.7733 46.6287 19.1874C45.9582 19.6015 45.4258 20.1832 45.0315 20.9325C44.6568 21.6621 44.4695 22.4903 44.4695 23.417C44.4695 24.3635 44.6568 25.2015 45.0315 25.9311C45.4258 26.6607 45.9582 27.2325 46.6287 27.6466C47.3188 28.0607 48.0878 28.2677 48.9357 28.2677ZM62.8335 31.8171C61.7095 31.8171 60.7335 31.6297 59.9053 31.2551C59.0771 30.8804 58.4363 30.348 57.9828 29.6579C57.5292 28.948 57.3025 28.1297 57.3025 27.203C57.3025 26.3156 57.4997 25.5269 57.894 24.8367C58.2884 24.1269 58.8997 23.5353 59.7278 23.0621C60.556 22.5888 61.6011 22.2536 62.8631 22.0565L68.1279 21.1987V24.1565L63.6025 24.9255C62.8335 25.0635 62.2616 25.31 61.887 25.6649C61.5123 26.0199 61.325 26.4832 61.325 27.0551C61.325 27.6072 61.5321 28.0508 61.9461 28.3861C62.38 28.7016 62.9124 28.8593 63.5433 28.8593C64.3518 28.8593 65.0617 28.6917 65.6729 28.3565C66.3039 28.0015 66.787 27.5184 67.1222 26.9072C67.4772 26.2959 67.6546 25.6255 67.6546 24.8959V20.755C67.6546 20.0649 67.3786 19.4931 66.8265 19.0395C66.2941 18.5663 65.5842 18.3297 64.6969 18.3297C63.8687 18.3297 63.1293 18.5564 62.4785 19.01C61.8476 19.4438 61.3842 20.0255 61.0884 20.755L57.9236 19.217C58.2391 18.3691 58.7321 17.6395 59.4025 17.0283C60.0926 16.3973 60.9011 15.9043 61.8278 15.5494C62.7546 15.1945 63.7602 15.017 64.8448 15.017C66.1659 15.017 67.3293 15.2635 68.3349 15.7564C69.3405 16.2297 70.1194 16.9001 70.6715 17.7677C71.2434 18.6156 71.5293 19.6114 71.5293 20.755V31.4621H67.8617V28.7114L68.6898 28.6523C68.2758 29.3424 67.7828 29.9241 67.211 30.3973C66.6391 30.8509 65.9884 31.2058 65.2588 31.4621C64.5293 31.6987 63.7208 31.8171 62.8335 31.8171ZM78.719 31.8171C77.0035 31.8171 75.5049 31.4128 74.2232 30.6044C72.9612 29.7762 72.0936 28.6621 71.6203 27.2621L74.5189 25.872C74.933 26.779 75.5049 27.4889 76.2344 28.0015C76.9837 28.5142 77.8119 28.7706 78.719 28.7706C79.4288 28.7706 79.9908 28.6128 80.4049 28.2973C80.819 27.9818 81.026 27.5677 81.026 27.0551C81.026 26.7396 80.9373 26.4832 80.7598 26.286C80.6021 26.0691 80.3753 25.8917 80.0795 25.7537C79.8035 25.5959 79.4978 25.4677 79.1626 25.3691L76.5302 24.6297C75.1696 24.2353 74.1344 23.6339 73.4246 22.8255C72.7344 22.017 72.3894 21.0607 72.3894 19.9564C72.3894 18.9705 72.6358 18.1128 73.1288 17.3832C73.6415 16.6339 74.3415 16.0522 75.2288 15.6381C76.1358 15.224 77.1711 15.017 78.3344 15.017C79.8528 15.017 81.1936 15.3818 82.357 16.1114C83.5204 16.8409 84.3486 17.8663 84.8415 19.1874L81.8838 20.5776C81.6077 19.848 81.1443 19.2663 80.4936 18.8325C79.8429 18.3987 79.1133 18.1818 78.3049 18.1818C77.6542 18.1818 77.1415 18.3297 76.7668 18.6255C76.3922 18.9212 76.2049 19.3057 76.2049 19.779C76.2049 20.0748 76.2837 20.3311 76.4415 20.548C76.5992 20.7649 76.8161 20.9424 77.0922 21.0804C77.388 21.2184 77.7232 21.3466 78.0978 21.4649L80.6711 22.2339C81.9922 22.6283 83.0077 23.2198 83.7176 24.0086C84.4471 24.7973 84.8119 25.7635 84.8119 26.9072C84.8119 27.8734 84.5556 28.7311 84.0429 29.4804C83.5302 30.21 82.8204 30.7818 81.9133 31.1959C81.0063 31.61 79.9415 31.8171 78.719 31.8171Z" fill="white"/>
<path d="M95.1585 31.4621V9.07189H99.0331V18.5367L98.5007 17.9747C98.8754 17.0085 99.4867 16.279 100.335 15.786C101.202 15.2733 102.208 15.017 103.351 15.017C104.535 15.017 105.58 15.2733 106.487 15.786C107.413 16.2987 108.133 17.0184 108.646 17.9452C109.159 18.8522 109.415 19.9071 109.415 21.11V31.4621H105.54V22.0269C105.54 21.317 105.402 20.7057 105.126 20.1931C104.85 19.6804 104.466 19.286 103.973 19.01C103.499 18.7142 102.937 18.5663 102.287 18.5663C101.656 18.5663 101.094 18.7142 100.601 19.01C100.108 19.286 99.7233 19.6804 99.4472 20.1931C99.1712 20.7057 99.0331 21.317 99.0331 22.0269V31.4621H95.1585Z" fill="white"/>
<path d="M0.473242 34.5493L10.293 10.1478H14.5226L4.70284 34.5493H0.473242ZM12.9212 34.5493L22.741 10.1478H26.9706L17.1508 34.5493H12.9212ZM28.5341 31V26.8591H32.4383V31H28.5341ZM28.5341 19.0507V14.9098H32.4383V19.0507H28.5341Z" fill="white"/>
<circle cx="89.426" cy="29.8087" r="3.00397" fill="#80FF00" fill-opacity="0.18"/>
<circle cx="89.426" cy="29.8087" r="2.07967" fill="#80FF00" fill-opacity="0.32"/>
<circle cx="89.426" cy="29.8087" r="1.15537" fill="#80FF00"/>
</svg>
