<svg width="28" height="28" viewBox="0 0 28 28" fill="none" xmlns="http://www.w3.org/2000/svg">
<path d="M21.875 16.625C21.1016 16.6246 20.3501 16.8816 19.7389 17.3556L17.2113 15.3869C17.4021 14.9494 17.5004 14.4772 17.5 14C17.5 13.919 17.5 13.8381 17.4913 13.7583L18.9383 13.2759C19.3961 13.982 20.0929 14.4995 20.9012 14.7336C21.7095 14.9677 22.575 14.9028 23.3393 14.5508C24.1036 14.1987 24.7155 13.5831 25.0629 12.8166C25.4102 12.0502 25.4698 11.1842 25.2308 10.3774C24.9917 9.57061 24.47 8.87694 23.7611 8.42348C23.0523 7.97001 22.2038 7.78711 21.371 7.90827C20.5383 8.02944 19.7771 8.44656 19.2269 9.08323C18.6767 9.71991 18.3742 10.5335 18.375 11.375C18.375 11.4559 18.375 11.5369 18.3838 11.6167L16.9367 12.0991C16.6195 11.6087 16.1846 11.2054 15.6717 10.9261C15.1587 10.6468 14.5841 10.5003 14 10.5C13.8069 10.5004 13.6141 10.5165 13.4236 10.5481L12.6755 8.85936C13.3215 8.34321 13.7638 7.61502 13.9242 6.80386C14.0846 5.99269 13.9526 5.15094 13.5517 4.42779C13.1507 3.70465 12.5067 3.14681 11.7337 2.85316C10.9607 2.5595 10.1087 2.54899 9.32877 2.82349C8.5488 3.09799 7.8912 3.63978 7.47252 4.35281C7.05384 5.06585 6.90113 5.90409 7.04146 6.71896C7.18178 7.53384 7.60607 8.27272 8.23913 8.80464C8.87219 9.33657 9.67314 9.62719 10.5 9.62499C10.6931 9.62459 10.8859 9.60849 11.0764 9.57686L11.8245 11.2612C11.1901 11.7634 10.7498 12.4702 10.5788 13.2611C10.4078 14.0519 10.5168 14.8775 10.8872 15.5969L8.07516 18.095C7.36748 17.6179 6.5101 17.4153 5.66373 17.5251C4.81736 17.635 4.04011 18.0497 3.47765 18.6917C2.9152 19.3336 2.60617 20.1586 2.60848 21.012C2.61079 21.8655 2.92429 22.6888 3.49021 23.3277C4.05614 23.9666 4.83563 24.3771 5.68258 24.4823C6.52954 24.5876 7.3858 24.3803 8.09088 23.8994C8.79596 23.4185 9.30145 22.697 9.51259 21.87C9.72373 21.0431 9.62604 20.1675 9.23781 19.4075L12.0498 16.9094C12.6587 17.3193 13.3813 17.5269 14.1149 17.5025C14.8485 17.4782 15.5558 17.2232 16.1361 16.7737L18.6638 18.7425C18.4735 19.1786 18.3752 19.6492 18.375 20.125C18.375 20.8172 18.5803 21.4939 18.9649 22.0695C19.3494 22.6451 19.8961 23.0937 20.5356 23.3586C21.1752 23.6235 21.8789 23.6928 22.5578 23.5577C23.2368 23.4227 23.8604 23.0893 24.3499 22.5999C24.8394 22.1104 25.1727 21.4867 25.3078 20.8078C25.4428 20.1289 25.3735 19.4251 25.1086 18.7856C24.8437 18.1461 24.3951 17.5994 23.8195 17.2148C23.2439 16.8303 22.5672 16.625 21.875 16.625ZM21.875 9.62499C22.2211 9.62499 22.5595 9.72762 22.8473 9.91992C23.135 10.1122 23.3593 10.3855 23.4918 10.7053C23.6242 11.0251 23.6589 11.3769 23.5914 11.7164C23.5239 12.0559 23.3572 12.3677 23.1124 12.6124C22.8677 12.8572 22.5559 13.0238 22.2164 13.0914C21.8769 13.1589 21.5251 13.1242 21.2053 12.9918C20.8855 12.8593 20.6122 12.635 20.4199 12.3472C20.2276 12.0594 20.125 11.7211 20.125 11.375C20.125 10.9109 20.3094 10.4657 20.6376 10.1376C20.9658 9.80936 21.4109 9.62499 21.875 9.62499ZM8.75 6.12499C8.75 5.77887 8.85264 5.44053 9.04493 5.15274C9.23722 4.86495 9.51053 4.64065 9.83031 4.5082C10.1501 4.37574 10.5019 4.34109 10.8414 4.40861C11.1809 4.47614 11.4927 4.64281 11.7374 4.88755C11.9822 5.13229 12.1489 5.44411 12.2164 5.78358C12.2839 6.12305 12.2492 6.47491 12.1168 6.79468C11.9843 7.11445 11.76 7.38777 11.4722 7.58006C11.1845 7.77235 10.8461 7.87499 10.5 7.87499C10.0359 7.87499 9.59075 7.69061 9.26256 7.36242C8.93438 7.03424 8.75 6.58912 8.75 6.12499ZM6.125 22.75C5.77888 22.75 5.44054 22.6474 5.15275 22.4551C4.86497 22.2628 4.64066 21.9895 4.50821 21.6697C4.37576 21.3499 4.3411 20.998 4.40863 20.6586C4.47615 20.3191 4.64282 20.0073 4.88756 19.7626C5.13231 19.5178 5.44413 19.3511 5.78359 19.2836C6.12306 19.2161 6.47493 19.2507 6.7947 19.3832C7.11447 19.5157 7.38778 19.74 7.58007 20.0277C7.77237 20.3155 7.875 20.6539 7.875 21C7.875 21.4641 7.69063 21.9092 7.36244 22.2374C7.03425 22.5656 6.58913 22.75 6.125 22.75ZM12.25 14C12.25 13.6539 12.3526 13.3155 12.5449 13.0277C12.7372 12.74 13.0105 12.5157 13.3303 12.3832C13.6501 12.2507 14.0019 12.2161 14.3414 12.2836C14.6809 12.3511 14.9927 12.5178 15.2374 12.7626C15.4822 13.0073 15.6489 13.3191 15.7164 13.6586C15.7839 13.998 15.7492 14.3499 15.6168 14.6697C15.4843 14.9895 15.26 15.2628 14.9722 15.4551C14.6845 15.6474 14.3461 15.75 14 15.75C13.5359 15.75 13.0908 15.5656 12.7626 15.2374C12.4344 14.9092 12.25 14.4641 12.25 14ZM21.875 21.875C21.5289 21.875 21.1905 21.7724 20.9028 21.5801C20.615 21.3878 20.3907 21.1145 20.2582 20.7947C20.1258 20.4749 20.0911 20.123 20.1586 19.7836C20.2262 19.4441 20.3928 19.1323 20.6376 18.8876C20.8823 18.6428 21.1941 18.4761 21.5336 18.4086C21.8731 18.3411 22.2249 18.3757 22.5447 18.5082C22.8645 18.6407 23.1378 18.865 23.3301 19.1527C23.5224 19.4405 23.625 19.7789 23.625 20.125C23.625 20.5891 23.4406 21.0342 23.1124 21.3624C22.7843 21.6906 22.3391 21.875 21.875 21.875Z" fill="white"/>
</svg>
