<svg width="1440" height="758" viewBox="0 0 1440 758" fill="none" xmlns="http://www.w3.org/2000/svg">
<g clip-path="url(#clip0_3_60)">
<path d="M1440 0H0V758H1440V0Z" fill="#262626"/>
<path d="M0 123.857L80.0002 122.851C160 121.844 320 119.831 480 119.519C640 119.207 800 120.596 960 120.751C1120 120.908 1280 119.831 1360 119.293L1440 118.755V758H1360C1280 758 1120 758 960 758C800 758 640 758 480 758C320 758 160 758 80.0002 758H0V123.857Z" fill="#202020"/>
<path d="M0 167.698L80.0002 178.418C160 189.137 320 210.577 480 204.006C640 197.435 800 162.853 960 160.892C1120 158.932 1280 189.591 1360 204.92L1440 220.25V758H1360C1280 758 1120 758 960 758C800 758 640 758 480 758C320 758 160 758 80.0002 758H0V167.698Z" fill="#1A1A1A"/>
<path d="M0 300.426L80.0002 293.877C160 287.329 320 274.233 480 280.993C640 287.753 800 314.369 960 319.169C1120 323.968 1280 306.95 1360 298.441L1440 289.932V758H1360C1280 758 1120 758 960 758C800 758 640 758 480 758C320 758 160 758 80.0002 758H0V300.426Z" fill="#151515"/>
<path d="M0 416.212L80.0002 428.568C160 440.924 320 465.636 480 478.908C640 492.18 800 494.012 960 478.9C1120 463.788 1280 431.731 1360 415.703L1440 399.674V758H1360C1280 758 1120 758 960 758C800 758 640 758 480 758C320 758 160 758 80.0002 758H0V416.212Z" fill="#0F0F0F"/>
<path d="M0 542.925L80.0002 552.466C160 562.006 320 581.086 480 594.584C640 608.082 800 615.998 960 610.792C1120 605.585 1280 587.258 1360 578.094L1440 568.93V758H1360C1280 758 1120 758 960 758C800 758 640 758 480 758C320 758 160 758 80.0002 758H0V542.925Z" fill="#090909"/>
<path d="M0 638.36L80.0002 637.401C160 636.441 320 634.524 480 646.082C640 657.641 800 682.677 960 690.546C1120 698.415 1280 689.118 1360 684.47L1440 679.821V758H1360C1280 758 1120 758 960 758C800 758 640 758 480 758C320 758 160 758 80.0002 758H0V638.36Z" fill="#030303"/>
</g>
<defs>
<clipPath id="clip0_3_60">
<rect width="1440" height="758" fill="white"/>
</clipPath>
</defs>
</svg>
