<svg width="1440" height="690" viewBox="0 0 1440 690" fill="none" xmlns="http://www.w3.org/2000/svg">
<g clip-path="url(#clip0_5_204)">
<path d="M0 758L1440 758L1440 0L6.62665e-05 -0.000125889L0 758Z" fill="#262626"/>
<path d="M1440 634.143L1360 635.149C1280 636.156 1120 638.169 960 638.481C800 638.793 640 637.404 480 637.248C320 637.092 160 638.168 80.0002 638.707L0 639.245L5.58846e-05 -0.000124654L80.0003 -0.00011766C160 -0.000110666 320 -9.66787e-05 480 -8.2691e-05C640 -6.87034e-05 800 -5.47157e-05 960 -4.07281e-05C1120 -2.67405e-05 1280 -1.27528e-05 1360 -5.75903e-06L1440 1.23482e-06L1440 634.143Z" fill="#202020"/>
<path d="M1440 590.302L1360 579.582C1280 568.863 1120 547.423 960 553.994C800 560.565 640 595.146 480 597.107C320 599.068 160 568.409 80.0002 553.08L5.197e-06 537.75L5.22086e-05 -0.000138156L80.0003 -0.000131162C160 -0.000124168 320 -0.00011018 480 -9.61928e-05C640 -8.22052e-05 800 -6.82175e-05 960 -5.42299e-05C1120 -4.02422e-05 1280 -2.62545e-05 1360 -1.92608e-05L1440 -1.22669e-05L1440 590.302Z" fill="#1A1A1A"/>
<path d="M1440 457.574L1360 464.123C1280 470.671 1120 483.767 960 477.007C800 470.247 640 443.631 480 438.831C320 434.032 160 451.05 80.0002 459.558L9.46317e-07 468.068L4.18661e-05 -0.000188433L80.0003 -0.00018144C160 -0.000174446 320 -0.000160458 480 -0.00014647C640 -0.000132483 800 -0.000118495 960 -0.000104508C1120 -9.05199e-05 1280 -7.65322e-05 1360 -6.95384e-05L1440 -6.25446e-05L1440 457.574Z" fill="#151515"/>
<path d="M1440 341.788L1360 329.432C1280 317.076 1120 292.364 960 279.092C800 265.82 640 263.988 480 279.1C320 294.212 160 326.269 80.0003 342.297L6.10352e-05 358.325L9.2361e-05 -0.000140675L80.0003 -0.000133682C160 -0.000126688 320 -0.0001127 480 -9.87125e-05C640 -8.47249e-05 800 -7.07372e-05 960 -5.67496e-05C1120 -4.2762e-05 1280 -2.87743e-05 1360 -2.17805e-05L1440 -1.47866e-05L1440 341.788Z" fill="#0F0F0F"/>
<path d="M1440 215.075L1360 205.534C1280 195.994 1120 176.914 960 163.416C800 149.918 640 142.002 480 147.208C320 152.415 160 170.742 80.0003 179.906L6.33086e-05 189.07L7.98377e-05 -0.000167466L80.0003 -0.000160472C160 -0.000153478 320 -0.000139491 480 -0.000125503C640 -0.000111515 800 -9.75276e-05 960 -8.354e-05C1120 -6.95524e-05 1280 -5.55647e-05 1360 -4.85709e-05L1440 -4.15771e-05L1440 215.075Z" fill="#090909"/>
<path d="M1440 119.64L1360 120.599C1280 121.559 1120 123.476 960 111.918C800 100.359 640 75.3233 480 67.4542C320 59.585 160 68.8817 80.0003 73.5301L6.48087e-05 78.1791L7.16433e-05 -0.000153029L80.0003 -0.000146035C160 -0.000139041 320 -0.000125053 480 -0.000111066C640 -9.70782e-05 800 -8.30905e-05 960 -6.91029e-05C1120 -5.51153e-05 1280 -4.11276e-05 1360 -3.41338e-05L1440 -2.714e-05L1440 119.64Z" fill="#030303"/>
</g>
<defs>
<clipPath id="clip0_5_204">
<rect width="1440" height="758" fill="white" transform="translate(1440 758) rotate(-180)"/>
</clipPath>
</defs>
</svg>
